<svg width="18" height="17" viewBox="0 0 18 17" fill="none" xmlns="http://www.w3.org/2000/svg">
<g id="cil:location-pin">
<path id="Vector" d="M8.93109 4.23645C8.51081 4.23645 8.09996 4.36108 7.75051 4.59458C7.40105 4.82808 7.12868 5.15995 6.96785 5.54825C6.80701 5.93654 6.76493 6.36381 6.84692 6.77602C6.92892 7.18823 7.1313 7.56687 7.42849 7.86405C7.72568 8.16124 8.10432 8.36363 8.51653 8.44562C8.92873 8.52761 9.356 8.48553 9.74429 8.32469C10.1326 8.16386 10.4645 7.89149 10.698 7.54204C10.9315 7.19258 11.0561 6.78174 11.0561 6.36145C11.0555 5.79806 10.8314 5.25793 10.433 4.85956C10.0346 4.46118 9.49448 4.23709 8.93109 4.23645V4.23645ZM8.93109 7.42395C8.72095 7.42395 8.51553 7.36164 8.3408 7.24489C8.16607 7.12814 8.02989 6.9622 7.94947 6.76805C7.86905 6.5739 7.84801 6.36027 7.88901 6.15417C7.93 5.94806 8.0312 5.75874 8.17979 5.61015C8.32838 5.46156 8.5177 5.36036 8.72381 5.31937C8.92991 5.27837 9.14355 5.29941 9.33769 5.37983C9.53184 5.46025 9.69778 5.59643 9.81453 5.77116C9.93128 5.94588 9.99359 6.15131 9.99359 6.36145C9.99327 6.64314 9.88122 6.91321 9.68203 7.11239C9.48285 7.31158 9.21278 7.42362 8.93109 7.42395V7.42395Z" fill="black"/>
<path id="Vector_2" d="M13.0145 2.27486C12.0049 1.2655 10.6571 0.665896 9.23144 0.591778C7.80573 0.517659 6.4031 0.974279 5.29426 1.87351C4.18543 2.77274 3.44898 4.05083 3.22707 5.46111C3.00515 6.87139 3.3135 8.31388 4.0926 9.51018L8.10709 15.6731C8.19643 15.8103 8.31858 15.9229 8.46247 16.0009C8.60636 16.0789 8.76744 16.1198 8.93111 16.1198C9.09478 16.1198 9.25586 16.0789 9.39975 16.0009C9.54364 15.9229 9.66579 15.8103 9.75513 15.6731L13.7698 9.51018C14.4927 8.40044 14.8121 7.07592 14.6746 5.75864C14.5371 4.44136 13.951 3.21138 13.0145 2.27486V2.27486ZM12.8795 8.93023L8.93113 14.9915L4.98271 8.93023C3.77412 7.07487 4.03333 4.59194 5.59906 3.02614C6.03663 2.58856 6.5561 2.24146 7.12782 2.00464C7.69954 1.76782 8.3123 1.64593 8.93113 1.64593C9.54995 1.64593 10.1627 1.76782 10.7344 2.00464C11.3062 2.24146 11.8256 2.58856 12.2632 3.02614C13.8289 4.59194 14.0881 7.07487 12.8795 8.93023Z" fill="black"/>
</g>
</svg>
